<svg xmlns="http://www.w3.org/2000/svg" viewBox="0 0 128 128">
  <path d="M 65.430 12.020 A 52 52 0 0 1 95.710 105.213 L 78.635 83.021 A 24 24 0 0 0 64.660 40.009 Z" fill="#2a78d6"/>
  <path d="M 93.397 106.893 A 52 52 0 0 1 20.878 93.060 L 44.097 77.412 A 24 24 0 0 0 77.568 83.797 Z" fill="#1baf7a"/>
  <path d="M 12.345 90.645 A 52 52 0 0 1 12.345 37.355 L 36.390 51.702 A 24 24 0 0 0 36.390 76.298 Z" fill="#eda100"/>
  <path d="M 20.878 34.940 A 52 52 0 0 1 62.570 12.020 L 63.340 40.009 A 24 24 0 0 0 44.097 50.588 Z" fill="#4a3aa7"/>
</svg>
